<svg version="1.1" id="Layer_1" xmlns="http://www.w3.org/2000/svg" xmlns:xlink="http://www.w3.org/1999/xlink" x="0px" y="0px"
	 width="100%" viewBox="0 0 500 500" enable-background="new 0 0 500 500" xml:space="preserve">
<path fill="#000000" opacity="1.000000" stroke="none" 
	d="
M276.000000,501.000000 
	C184.000015,501.000000 92.500046,501.000000 1.000049,501.000000 
	C1.000033,334.333405 1.000033,167.666794 1.000016,1.000139 
	C167.666565,1.000092 334.333130,1.000092 500.999756,1.000046 
	C500.999847,167.666519 500.999847,334.333038 500.999939,500.999786 
	C426.166656,501.000000 351.333344,501.000000 276.000000,501.000000 
M81.123505,236.009079 
	C80.752441,236.432526 80.058556,236.854828 80.057045,237.279602 
	C80.004524,252.017014 80.004593,266.754700 80.081657,281.491943 
	C80.083992,281.938141 80.987236,282.379608 81.699783,282.939209 
	C81.699783,282.939209 81.924370,282.814331 82.737579,282.978455 
	C84.090248,282.926971 85.442909,282.875488 87.680229,282.712524 
	C87.680229,267.183472 87.680229,251.654449 87.680229,236.144592 
	C86.306458,236.144592 85.151863,236.144592 83.336456,236.009064 
	C82.891624,236.052902 82.446793,236.096725 81.123505,236.009079 
M44.003777,280.993469 
	C44.221664,273.020294 44.439548,265.047089 44.659496,256.998413 
	C52.474545,256.998413 59.120220,256.961731 65.765114,257.017883 
	C68.158279,257.038086 69.973831,256.817902 70.052391,253.675217 
	C70.136826,250.297882 68.284660,249.932938 65.619019,249.975418 
	C59.801327,250.068115 53.974152,250.154800 48.166908,249.890732 
	C46.755749,249.826569 44.212692,248.386841 44.217754,247.592529 
	C44.259029,241.114929 42.862778,234.478577 45.501564,228.001251 
	C52.965611,228.001251 60.268799,228.017471 67.571831,227.991074 
	C69.677155,227.983459 72.198242,228.431412 71.980431,224.069855 
	C71.174263,223.048782 70.384331,221.154236 69.559464,221.138901 
	C58.829418,220.939484 48.094421,221.006622 37.322533,221.006622 
	C37.322533,241.952454 37.322533,262.412872 37.322533,283.545349 
	C39.845325,282.934753 41.944630,282.426666 44.003777,280.993469 
M140.021164,246.241760 
	C139.409393,241.373199 136.482803,238.386627 131.984940,237.064102 
	C123.953934,234.702713 116.343887,235.407211 109.464355,241.482773 
	C109.189430,240.046646 109.011917,239.119370 108.963982,237.304733 
	C106.844070,236.707367 104.724159,236.109985 102.018959,235.347687 
	C102.018959,251.415085 102.010124,266.530762 102.067574,281.646179 
	C102.069084,282.042999 102.792854,282.437103 103.986572,282.975464 
	C106.248161,282.525330 109.864456,284.511749 109.941200,280.013733 
	C110.072968,272.291473 110.043404,264.565247 109.983604,256.841431 
	C109.955940,253.267883 110.422012,250.125275 112.876328,247.098206 
	C116.559402,242.555679 121.388474,240.720383 128.475693,243.113480 
	C133.151703,244.692413 134.032822,249.013184 134.020523,253.490128 
	C133.997223,261.967255 133.980545,270.444550 134.013748,278.921570 
	C134.019836,280.475769 134.275436,282.028992 134.411942,283.539429 
	C136.953140,283.255981 138.841660,283.045349 141.649399,282.763763 
	C141.763519,271.556976 141.911484,260.350159 141.912140,249.143372 
	C141.912186,248.430435 140.768097,247.717453 140.021164,246.241760 
M392.517303,202.004807 
	C388.256683,203.239929 383.828949,204.082306 379.776611,205.806824 
	C374.370972,208.107254 369.291199,208.296768 364.070709,205.609146 
	C360.379517,203.708893 356.702759,201.757019 352.892944,200.123444 
	C351.532379,199.540070 349.289886,199.175827 348.378815,199.892471 
	C347.444672,200.627274 346.972748,203.089249 347.480042,204.300491 
	C348.926971,207.755463 350.178497,212.084259 352.942657,214.039841 
	C359.887238,218.953018 367.312347,223.485229 375.131500,226.776169 
	C382.285217,229.787048 389.004547,232.941208 394.307526,238.696259 
	C399.310181,244.125366 399.812134,243.732376 405.034424,238.566910 
	C408.917236,234.726303 413.600037,231.468567 418.414093,228.846405 
	C426.370056,224.512848 434.869995,221.181305 442.849457,216.886429 
	C448.117188,214.051147 450.866241,209.161209 450.996063,202.949692 
	C451.079651,198.949432 449.116669,198.240021 445.982483,199.687744 
	C443.281372,200.935410 440.667297,202.432373 438.179901,204.069931 
	C431.650543,208.368546 425.250854,208.562698 418.027435,205.253967 
	C410.322266,201.724609 402.078339,199.528412 392.517303,202.004807 
M208.588638,263.890472 
	C208.188324,265.317780 207.788010,266.745087 207.048309,269.382477 
	C206.410568,267.317749 206.172348,266.570404 205.948639,265.818726 
	C201.931213,252.320114 197.885391,238.829819 193.923996,225.314774 
	C193.099060,222.500290 191.978928,220.806595 188.506195,220.874832 
	C184.988937,220.943893 183.554947,222.340759 182.687714,225.567322 
	C180.622086,233.252716 178.225662,240.849213 175.961731,248.481277 
	C174.077667,254.832718 172.191956,261.183685 169.986526,268.614624 
	C166.123459,253.755783 162.569550,240.169556 159.065475,226.570450 
	C157.470718,220.381287 156.061554,219.671402 149.342789,222.190765 
	C154.568054,241.656876 159.739456,261.175385 165.199387,280.612854 
	C165.515762,281.739197 168.242905,282.933502 169.725754,282.794159 
	C171.486984,282.628632 174.122192,281.417328 174.626770,280.024567 
	C176.764374,274.124176 178.227753,267.981323 179.982468,261.940094 
	C182.688049,252.625168 185.430450,243.320938 188.348160,233.360443 
	C193.157318,249.189026 197.820877,264.221558 202.239563,279.325745 
	C203.226242,282.698486 205.262619,282.961243 208.163834,283.058441 
	C211.280334,283.162872 212.196716,281.374878 212.821808,278.998413 
	C216.192368,266.184235 219.559738,253.369110 222.895905,240.545929 
	C224.534531,234.247650 226.103409,227.931213 227.684418,221.699524 
	C221.679230,219.761520 219.042313,221.508286 217.821686,226.947662 
	C215.100800,239.072464 211.868927,251.082626 208.588638,263.890472 
M405.967621,298.445770 
	C411.627686,294.782745 416.954895,290.365723 423.045166,287.677246 
	C428.686218,285.187073 435.181305,284.681061 441.212952,282.989746 
	C442.629700,282.592468 444.657593,281.020233 444.753662,279.852722 
	C445.153137,274.997406 444.921631,270.090149 444.921631,264.476013 
	C435.253510,274.094482 424.009735,281.084015 408.894257,276.613159 
	C407.684814,276.255402 406.022369,277.560059 404.537323,277.973236 
	C402.231140,278.614899 398.889832,280.422607 397.748718,279.516876 
	C392.878998,275.651642 387.956970,277.635162 382.827271,277.767242 
	C378.162720,277.887390 373.063293,277.155457 368.861694,275.245636 
	C363.344849,272.737946 358.520050,268.707703 353.032166,265.091400 
	C353.032166,269.086517 353.063629,273.353851 353.022003,277.620514 
	C352.989960,280.906189 354.086884,282.807251 357.798248,283.176208 
	C371.383514,284.526550 383.433197,289.487854 393.510498,298.934174 
	C399.668335,304.706421 399.735291,304.635010 405.967621,298.445770 
M296.567047,262.950989 
	C298.417877,267.813965 299.189789,273.573242 302.335846,277.360199 
	C309.725922,286.255737 320.098236,284.938568 330.017853,282.711029 
	C335.475342,281.485565 335.804901,280.172333 334.213776,275.146912 
	C328.537109,275.768311 322.994659,276.731537 317.429413,276.888519 
	C311.294891,277.061584 306.020203,271.979828 305.115479,265.927643 
	C304.709656,263.212952 305.568268,261.877594 308.532013,261.931030 
	C314.194244,262.033142 319.860168,261.913513 325.524506,261.919067 
	C338.383331,261.931732 338.906067,260.970825 335.232086,248.285934 
	C332.726471,239.634995 326.646942,235.699326 318.431274,235.258850 
	C311.444000,234.884247 305.022827,237.035309 300.936310,243.604691 
	C297.382446,249.317780 296.243683,255.556122 296.567047,262.950989 
M282.541870,236.782806 
	C280.124695,236.228867 277.658173,235.060822 275.300751,235.250305 
	C270.562164,235.631165 265.610138,236.043259 261.240021,237.725342 
	C253.668777,240.639572 251.972260,253.716721 260.463379,257.895142 
	C265.515961,260.381500 270.959961,262.171692 275.730713,265.088348 
	C278.020844,266.488403 279.157928,269.774475 280.817200,272.206451 
	C278.352600,273.814636 275.940247,276.674377 273.412933,276.779907 
	C267.486359,277.027283 261.504791,275.956146 255.466919,275.411682 
	C254.300034,281.440826 254.528976,282.305481 260.787201,283.218964 
	C266.006561,283.980774 271.423767,284.186523 276.674286,283.729767 
	C282.984467,283.180817 287.742706,277.818390 288.665100,271.501129 
	C289.401367,266.458710 286.342682,261.586731 280.339447,258.756439 
	C275.539795,256.493622 270.477295,254.755173 265.811462,252.260345 
	C264.274597,251.438553 262.778320,248.965637 262.806793,247.273666 
	C262.830994,245.836060 265.014252,243.295456 266.348724,243.223709 
	C271.176392,242.964172 276.082672,243.281250 280.890533,243.908035 
	C283.330536,244.226135 285.292877,245.145035 286.422241,241.938385 
	C287.542847,238.756516 285.840790,237.697769 282.541870,236.782806 
M431.696381,234.142593 
	C438.568481,242.654572 435.441315,259.887573 420.989716,261.985291 
	C415.305786,262.810333 413.525909,267.033752 411.381989,271.338226 
	C422.417938,274.978455 433.468323,270.118652 440.395569,260.823730 
	C447.779388,250.916306 446.548737,235.135712 437.922363,226.058029 
	C435.742096,227.317230 433.517151,228.719254 431.187103,229.916809 
	C428.578125,231.257690 429.996033,232.409744 431.696381,234.142593 
M364.391907,250.806473 
	C360.548920,243.047195 365.549866,237.009644 368.964172,230.687607 
	C365.833099,229.010025 363.253265,227.627823 360.745728,226.284317 
	C350.800446,238.018936 350.778595,252.791428 360.456116,263.662201 
	C367.060181,271.080566 380.859436,274.870697 387.380219,270.729309 
	C384.835632,267.409241 383.757294,262.605316 378.557648,262.190277 
	C371.508850,261.627563 367.673462,257.231720 364.391907,250.806473 
M429.923462,247.013901 
	C429.902527,245.516525 430.059418,243.991440 429.831055,242.526413 
	C428.601593,234.639496 422.787048,231.635498 416.037506,235.644058 
	C413.377167,237.224030 411.105194,239.545151 408.881714,241.755493 
	C404.040161,246.568329 404.930756,252.119370 410.923309,255.387985 
	C418.594391,259.572174 425.672607,256.740356 429.923462,247.013901 
M392.917877,248.690323 
	C393.007263,247.875290 393.456146,246.859894 393.130737,246.276062 
	C389.701721,240.123947 384.589020,235.818390 378.068634,233.242264 
	C377.277039,232.929504 376.050201,233.200577 375.216339,233.600174 
	C371.081085,235.581802 367.980133,241.942612 368.767242,246.557739 
	C369.760498,252.381439 373.276978,256.075226 378.612579,256.899536 
	C385.321625,257.936005 388.994263,255.977814 392.917877,248.690323 
M243.937561,252.502258 
	C243.938309,248.674011 243.847290,244.842834 243.969101,241.018448 
	C244.064804,238.013611 243.751251,235.930283 239.811264,235.949921 
	C236.006653,235.968872 235.991653,238.109665 235.999741,240.801041 
	C236.037231,253.284286 236.044525,265.767822 235.994995,278.250977 
	C235.984100,280.993225 236.100052,283.019012 239.851837,283.065857 
	C243.893448,283.116333 243.967896,280.892761 243.943161,277.969055 
	C243.874161,269.813812 243.932449,261.657501 243.937561,252.502258 
M408.731781,260.409607 
	C405.430756,256.685852 402.129730,252.962082 399.150482,249.601364 
	C397.153595,252.198105 395.333649,256.030914 392.311279,258.143768 
	C388.016968,261.145782 387.647583,263.468994 391.298584,266.918732 
	C392.242676,267.810791 392.812592,269.086334 393.693909,270.059357 
	C399.434235,276.396851 399.451141,276.388916 404.899445,269.588959 
	C406.448059,267.656250 408.099854,265.783112 409.415527,263.700226 
	C409.839386,263.029144 409.338440,261.773895 408.731781,260.409607 
M235.257675,222.922623 
	C234.729355,225.917160 235.488312,228.580734 238.789642,228.697189 
	C240.417923,228.754639 243.368561,226.982559 243.501236,225.791138 
	C243.724777,223.783676 242.772629,220.782272 241.241058,219.644318 
	C238.935471,217.931335 236.577896,219.340820 235.257675,222.922623 
M86.114014,228.949020 
	C86.746262,228.253906 87.854530,227.599014 87.917328,226.855789 
	C88.075912,224.978867 88.444527,222.484924 87.455238,221.318771 
	C86.400459,220.075439 82.885696,219.070099 82.214989,219.738129 
	C80.856033,221.091553 79.788933,223.919785 80.306946,225.620544 
	C80.761719,227.113663 83.545410,227.897415 86.114014,228.949020 
z"/>
<path fill="#033364" opacity="1.000000" stroke="none" 
	d="
M392.961731,201.993103 
	C402.078339,199.528412 410.322266,201.724609 418.027435,205.253967 
	C425.250854,208.562698 431.650543,208.368546 438.179901,204.069931 
	C440.667297,202.432373 443.281372,200.935410 445.982483,199.687744 
	C449.116669,198.240021 451.079651,198.949432 450.996063,202.949692 
	C450.866241,209.161209 448.117188,214.051147 442.849457,216.886429 
	C434.869995,221.181305 426.370056,224.512848 418.414093,228.846405 
	C413.600037,231.468567 408.917236,234.726303 405.034424,238.566910 
	C399.812134,243.732376 399.310181,244.125366 394.307526,238.696259 
	C389.004547,232.941208 382.285217,229.787048 375.131500,226.776169 
	C367.312347,223.485229 359.887238,218.953018 352.942657,214.039841 
	C350.178497,212.084259 348.926971,207.755463 347.480042,204.300491 
	C346.972748,203.089249 347.444672,200.627274 348.378815,199.892471 
	C349.289886,199.175827 351.532379,199.540070 352.892944,200.123444 
	C356.702759,201.757019 360.379517,203.708893 364.070709,205.609146 
	C369.291199,208.296768 374.370972,208.107254 379.776611,205.806824 
	C383.828949,204.082306 388.256683,203.239929 392.961731,201.993103 
z"/>
<path fill="#063361" opacity="1.000000" stroke="none" 
	d="
M208.716949,263.514984 
	C211.868927,251.082626 215.100800,239.072464 217.821686,226.947662 
	C219.042313,221.508286 221.679230,219.761520 227.684418,221.699524 
	C226.103409,227.931213 224.534531,234.247650 222.895905,240.545929 
	C219.559738,253.369110 216.192368,266.184235 212.821808,278.998413 
	C212.196716,281.374878 211.280334,283.162872 208.163834,283.058441 
	C205.262619,282.961243 203.226242,282.698486 202.239563,279.325745 
	C197.820877,264.221558 193.157318,249.189026 188.348160,233.360443 
	C185.430450,243.320938 182.688049,252.625168 179.982468,261.940094 
	C178.227753,267.981323 176.764374,274.124176 174.626770,280.024567 
	C174.122192,281.417328 171.486984,282.628632 169.725754,282.794159 
	C168.242905,282.933502 165.515762,281.739197 165.199387,280.612854 
	C159.739456,261.175385 154.568054,241.656876 149.342789,222.190765 
	C156.061554,219.671402 157.470718,220.381287 159.065475,226.570450 
	C162.569550,240.169556 166.123459,253.755783 169.986526,268.614624 
	C172.191956,261.183685 174.077667,254.832718 175.961731,248.481277 
	C178.225662,240.849213 180.622086,233.252716 182.687714,225.567322 
	C183.554947,222.340759 184.988937,220.943893 188.506195,220.874832 
	C191.978928,220.806595 193.099060,222.500290 193.923996,225.314774 
	C197.885391,238.829819 201.931213,252.320114 205.948639,265.818726 
	C206.172348,266.570404 206.410568,267.317749 207.048309,269.382477 
	C207.788010,266.745087 208.188324,265.317780 208.716949,263.514984 
z"/>
<path fill="#043463" opacity="1.000000" stroke="none" 
	d="
M405.715088,298.697906 
	C399.735291,304.635010 399.668335,304.706421 393.510498,298.934174 
	C383.433197,289.487854 371.383514,284.526550 357.798248,283.176208 
	C354.086884,282.807251 352.989960,280.906189 353.022003,277.620514 
	C353.063629,273.353851 353.032166,269.086517 353.032166,265.091400 
	C358.520050,268.707703 363.344849,272.737946 368.861694,275.245636 
	C373.063293,277.155457 378.162720,277.887390 382.827271,277.767242 
	C387.956970,277.635162 392.878998,275.651642 397.748718,279.516876 
	C398.889832,280.422607 402.231140,278.614899 404.537323,277.973236 
	C406.022369,277.560059 407.684814,276.255402 408.894257,276.613159 
	C424.009735,281.084015 435.253510,274.094482 444.921631,264.476013 
	C444.921631,270.090149 445.153137,274.997406 444.753662,279.852722 
	C444.657593,281.020233 442.629700,282.592468 441.212952,282.989746 
	C435.181305,284.681061 428.686218,285.187073 423.045166,287.677246 
	C416.954895,290.365723 411.627686,294.782745 405.715088,298.697906 
z"/>
<path fill="#063360" opacity="1.000000" stroke="none" 
	d="
M296.431793,262.541382 
	C296.243683,255.556122 297.382446,249.317780 300.936310,243.604691 
	C305.022827,237.035309 311.444000,234.884247 318.431274,235.258850 
	C326.646942,235.699326 332.726471,239.634995 335.232086,248.285934 
	C338.906067,260.970825 338.383331,261.931732 325.524506,261.919067 
	C319.860168,261.913513 314.194244,262.033142 308.532013,261.931030 
	C305.568268,261.877594 304.709656,263.212952 305.115479,265.927643 
	C306.020203,271.979828 311.294891,277.061584 317.429413,276.888519 
	C322.994659,276.731537 328.537109,275.768311 334.213776,275.146912 
	C335.804901,280.172333 335.475342,281.485565 330.017853,282.711029 
	C320.098236,284.938568 309.725922,286.255737 302.335846,277.360199 
	C299.189789,273.573242 298.417877,267.813965 296.431793,262.541382 
M314.554291,255.015854 
	C318.925018,255.015854 323.295715,255.015854 327.694366,255.015854 
	C327.228943,246.091568 323.349304,241.814713 316.786224,241.994690 
	C310.263489,242.173569 305.430481,247.616928 305.725037,255.008499 
	C308.323425,255.008499 310.954651,255.008499 314.554291,255.015854 
z"/>
<path fill="#063360" opacity="1.000000" stroke="none" 
	d="
M282.931702,236.879669 
	C285.840790,237.697769 287.542847,238.756516 286.422241,241.938385 
	C285.292877,245.145035 283.330536,244.226135 280.890533,243.908035 
	C276.082672,243.281250 271.176392,242.964172 266.348724,243.223709 
	C265.014252,243.295456 262.830994,245.836060 262.806793,247.273666 
	C262.778320,248.965637 264.274597,251.438553 265.811462,252.260345 
	C270.477295,254.755173 275.539795,256.493622 280.339447,258.756439 
	C286.342682,261.586731 289.401367,266.458710 288.665100,271.501129 
	C287.742706,277.818390 282.984467,283.180817 276.674286,283.729767 
	C271.423767,284.186523 266.006561,283.980774 260.787201,283.218964 
	C254.528976,282.305481 254.300034,281.440826 255.466919,275.411682 
	C261.504791,275.956146 267.486359,277.027283 273.412933,276.779907 
	C275.940247,276.674377 278.352600,273.814636 280.817200,272.206451 
	C279.157928,269.774475 278.020844,266.488403 275.730713,265.088348 
	C270.959961,262.171692 265.515961,260.381500 260.463379,257.895142 
	C251.972260,253.716721 253.668777,240.639572 261.240021,237.725342 
	C265.610138,236.043259 270.562164,235.631165 275.300751,235.250305 
	C277.658173,235.060822 280.124695,236.228867 282.931702,236.879669 
z"/>
<path fill="#FCD609" opacity="1.000000" stroke="none" 
	d="
M140.730194,282.834717 
	C138.841660,283.045349 136.953140,283.255981 134.411942,283.539429 
	C134.275436,282.028992 134.019836,280.475769 134.013748,278.921570 
	C133.980545,270.444550 133.997223,261.967255 134.020523,253.490128 
	C134.032822,249.013184 133.151703,244.692413 128.475693,243.113480 
	C121.388474,240.720383 116.559402,242.555679 112.876328,247.098206 
	C110.422012,250.125275 109.955940,253.267883 109.983604,256.841431 
	C110.043404,264.565247 110.072968,272.291473 109.941200,280.013733 
	C109.864456,284.511749 106.248161,282.525330 103.550690,282.446808 
	C103.111595,268.549255 103.069969,255.180222 103.125542,241.811569 
	C103.145554,236.997284 104.013344,236.516861 108.834404,238.192108 
	C109.011917,239.119370 109.189430,240.046646 109.464355,241.482773 
	C116.343887,235.407211 123.953934,234.702713 131.984940,237.064102 
	C136.482803,238.386627 139.409393,241.373199 140.044769,247.044617 
	C140.288971,259.509888 140.509583,271.172302 140.730194,282.834717 
z"/>
<path fill="#FDD704" opacity="1.000000" stroke="none" 
	d="
M71.837006,224.931122 
	C72.198242,228.431412 69.677155,227.983459 67.571831,227.991074 
	C60.268799,228.017471 52.965611,228.001251 45.501564,228.001251 
	C42.862778,234.478577 44.259029,241.114929 44.217754,247.592529 
	C44.212692,248.386841 46.755749,249.826569 48.166908,249.890732 
	C53.974152,250.154800 59.801327,250.068115 65.619019,249.975418 
	C68.284660,249.932938 70.136826,250.297882 70.052391,253.675217 
	C69.973831,256.817902 68.158279,257.038086 65.765114,257.017883 
	C59.120220,256.961731 52.474545,256.998413 44.659496,256.998413 
	C44.439548,265.047089 44.221664,273.020294 43.605072,281.480103 
	C39.236984,282.445618 37.931755,280.545837 37.956818,276.734741 
	C38.066380,260.072723 38.086216,243.408905 37.945255,226.747375 
	C37.913097,222.946518 39.424782,221.845551 42.995819,221.928207 
	C50.656570,222.105515 58.332916,221.782959 65.983315,222.115234 
	C67.971565,222.201584 69.887733,223.947479 71.837006,224.931122 
z"/>
<path fill="#053361" opacity="1.000000" stroke="none" 
	d="
M431.449585,233.892593 
	C429.996033,232.409744 428.578125,231.257690 431.187103,229.916809 
	C433.517151,228.719254 435.742096,227.317230 437.922363,226.058029 
	C446.548737,235.135712 447.779388,250.916306 440.395569,260.823730 
	C433.468323,270.118652 422.417938,274.978455 411.381989,271.338226 
	C413.525909,267.033752 415.305786,262.810333 420.989716,261.985291 
	C435.441315,259.887573 438.568481,242.654572 431.449585,233.892593 
z"/>
<path fill="#053361" opacity="1.000000" stroke="none" 
	d="
M364.583588,251.145203 
	C367.673462,257.231720 371.508850,261.627563 378.557648,262.190277 
	C383.757294,262.605316 384.835632,267.409241 387.380219,270.729309 
	C380.859436,274.870697 367.060181,271.080566 360.456116,263.662201 
	C350.778595,252.791428 350.800446,238.018936 360.745728,226.284317 
	C363.253265,227.627823 365.833099,229.010025 368.964172,230.687607 
	C365.549866,237.009644 360.548920,243.047195 364.583588,251.145203 
z"/>
<path fill="#063361" opacity="1.000000" stroke="none" 
	d="
M429.875488,247.419388 
	C425.672607,256.740356 418.594391,259.572174 410.923309,255.387985 
	C404.930756,252.119370 404.040161,246.568329 408.881714,241.755493 
	C411.105194,239.545151 413.377167,237.224030 416.037506,235.644058 
	C422.787048,231.635498 428.601593,234.639496 429.831055,242.526413 
	C430.059418,243.991440 429.902527,245.516525 429.875488,247.419388 
M415.111206,243.163467 
	C415.071289,243.827072 414.809387,244.581589 415.036407,245.135864 
	C415.552307,246.395508 416.308533,247.556702 416.967072,248.757919 
	C417.890991,248.243637 419.576904,247.764145 419.602295,247.208832 
	C419.694489,245.188583 419.231201,243.142975 418.977386,241.106934 
	C417.761627,241.550369 416.545868,241.993805 415.111206,243.163467 
z"/>
<path fill="#053361" opacity="1.000000" stroke="none" 
	d="
M392.830627,249.027740 
	C388.994263,255.977814 385.321625,257.936005 378.612579,256.899536 
	C373.276978,256.075226 369.760498,252.381439 368.767242,246.557739 
	C367.980133,241.942612 371.081085,235.581802 375.216339,233.600174 
	C376.050201,233.200577 377.277039,232.929504 378.068634,233.242264 
	C384.589020,235.818390 389.701721,240.123947 393.130737,246.276062 
	C393.456146,246.859894 393.007263,247.875290 392.830627,249.027740 
M381.389374,240.339890 
	C377.347351,241.630112 377.730804,244.517685 379.134491,247.400833 
	C379.493042,248.137207 381.178864,248.227356 382.254852,248.614410 
	C382.399109,246.217346 382.562866,243.821030 382.657013,241.421997 
	C382.666260,241.185928 382.248230,240.933105 381.389374,240.339890 
z"/>
<path fill="#063360" opacity="1.000000" stroke="none" 
	d="
M243.939026,253.001938 
	C243.932449,261.657501 243.874161,269.813812 243.943161,277.969055 
	C243.967896,280.892761 243.893448,283.116333 239.851837,283.065857 
	C236.100052,283.019012 235.984100,280.993225 235.994995,278.250977 
	C236.044525,265.767822 236.037231,253.284286 235.999741,240.801041 
	C235.991653,238.109665 236.006653,235.968872 239.811264,235.949921 
	C243.751251,235.930283 244.064804,238.013611 243.969101,241.018448 
	C243.847290,244.842834 243.938309,248.674011 243.939026,253.001938 
z"/>
<path fill="#053361" opacity="1.000000" stroke="none" 
	d="
M408.996155,260.597778 
	C409.338440,261.773895 409.839386,263.029144 409.415527,263.700226 
	C408.099854,265.783112 406.448059,267.656250 404.899445,269.588959 
	C399.451141,276.388916 399.434235,276.396851 393.693909,270.059357 
	C392.812592,269.086334 392.242676,267.810791 391.298584,266.918732 
	C387.647583,263.468994 388.016968,261.145782 392.311279,258.143768 
	C395.333649,256.030914 397.153595,252.198105 399.150482,249.601364 
	C402.129730,252.962082 405.430756,256.685852 408.996155,260.597778 
z"/>
<path fill="#FDD704" opacity="1.000000" stroke="none" 
	d="
M81.924362,282.814331 
	C81.924370,282.814331 81.699783,282.939209 81.503082,282.428711 
	C81.255066,267.299805 81.203743,252.681351 81.464752,238.032913 
	C82.520409,237.665253 83.263733,237.327560 84.370148,237.100250 
	C85.468597,239.479462 86.805954,241.739563 86.838974,244.018585 
	C87.017258,256.325562 86.872253,268.637207 86.520142,281.023590 
	C84.775833,281.671387 83.350098,282.242859 81.924362,282.814331 
z"/>
<path fill="#F8D927" opacity="1.000000" stroke="none" 
	d="
M71.908722,224.500488 
	C69.887733,223.947479 67.971565,222.201584 65.983315,222.115234 
	C58.332916,221.782959 50.656570,222.105515 42.995819,221.928207 
	C39.424782,221.845551 37.913097,222.946518 37.945255,226.747375 
	C38.086216,243.408905 38.066380,260.072723 37.956818,276.734741 
	C37.931755,280.545837 39.236984,282.445618 43.625153,281.942657 
	C41.944630,282.426666 39.845325,282.934753 37.322533,283.545349 
	C37.322533,262.412872 37.322533,241.952454 37.322533,221.006622 
	C48.094421,221.006622 58.829418,220.939484 69.559464,221.138901 
	C70.384331,221.154236 71.174263,223.048782 71.908722,224.500488 
z"/>
<path fill="#063360" opacity="1.000000" stroke="none" 
	d="
M235.391907,222.552124 
	C236.577896,219.340820 238.935471,217.931335 241.241058,219.644318 
	C242.772629,220.782272 243.724777,223.783676 243.501236,225.791138 
	C243.368561,226.982559 240.417923,228.754639 238.789642,228.697189 
	C235.488312,228.580734 234.729355,225.917160 235.391907,222.552124 
z"/>
<path fill="#FCD609" opacity="1.000000" stroke="none" 
	d="
M85.707237,228.971741 
	C83.545410,227.897415 80.761719,227.113663 80.306946,225.620544 
	C79.788933,223.919785 80.856033,221.091553 82.214989,219.738129 
	C82.885696,219.070099 86.400459,220.075439 87.455238,221.318771 
	C88.444527,222.484924 88.075912,224.978867 87.917328,226.855789 
	C87.854530,227.599014 86.746262,228.253906 85.707237,228.971741 
z"/>
<path fill="#ECCF55" opacity="1.000000" stroke="none" 
	d="
M108.899193,237.748413 
	C104.013344,236.516861 103.145554,236.997284 103.125542,241.811569 
	C103.069969,255.180222 103.111595,268.549255 103.147308,282.375305 
	C102.792854,282.437103 102.069084,282.042999 102.067574,281.646179 
	C102.010124,266.530762 102.018959,251.415085 102.018959,235.347687 
	C104.724159,236.109985 106.844070,236.707367 108.899193,237.748413 
z"/>
<path fill="#ECCF55" opacity="1.000000" stroke="none" 
	d="
M86.838722,280.947235 
	C86.872253,268.637207 87.017258,256.325562 86.838974,244.018585 
	C86.805954,241.739563 85.468597,239.479462 84.369736,236.888947 
	C84.006226,236.567276 83.997269,236.144592 83.997269,236.144592 
	C85.151863,236.144592 86.306458,236.144592 87.680229,236.144592 
	C87.680229,251.654449 87.680229,267.183472 87.275963,282.456360 
	C86.860703,281.782562 86.849716,281.364899 86.838722,280.947235 
z"/>
<path fill="#ECCF55" opacity="1.000000" stroke="none" 
	d="
M81.152420,238.062897 
	C81.203743,252.681351 81.255066,267.299805 81.388412,282.370758 
	C80.987236,282.379608 80.083992,281.938141 80.081657,281.491943 
	C80.004593,266.754700 80.004524,252.017014 80.057045,237.279602 
	C80.058556,236.854828 80.752441,236.432526 81.434357,236.306564 
	C81.547607,237.090332 81.350014,237.576614 81.152420,238.062897 
z"/>
<path fill="#ECCF55" opacity="1.000000" stroke="none" 
	d="
M141.189789,282.799255 
	C140.509583,271.172302 140.288971,259.509888 140.112305,247.425980 
	C140.768097,247.717453 141.912186,248.430435 141.912140,249.143372 
	C141.911484,260.350159 141.763519,271.556976 141.189789,282.799255 
z"/>
<path fill="#F7D61B" opacity="1.000000" stroke="none" 
	d="
M86.520142,281.023590 
	C86.849716,281.364899 86.860703,281.782562 86.833633,282.512115 
	C85.442909,282.875488 84.090248,282.926971 82.330971,282.896393 
	C83.350098,282.242859 84.775833,281.671387 86.520142,281.023590 
z"/>
<path fill="#F7D61B" opacity="1.000000" stroke="none" 
	d="
M81.464752,238.032913 
	C81.350014,237.576614 81.547607,237.090332 81.873581,236.372314 
	C82.446793,236.096725 82.891624,236.052902 83.666862,236.076828 
	C83.997269,236.144592 84.006226,236.567276 84.006638,236.778580 
	C83.263733,237.327560 82.520409,237.665253 81.464752,238.032913 
z"/>
<path fill="#000000" opacity="1.000000" stroke="none" 
	d="
M314.070068,255.012177 
	C310.954651,255.008499 308.323425,255.008499 305.725037,255.008499 
	C305.430481,247.616928 310.263489,242.173569 316.786224,241.994690 
	C323.349304,241.814713 327.228943,246.091568 327.694366,255.015854 
	C323.295715,255.015854 318.925018,255.015854 314.070068,255.012177 
z"/>
<path fill="#000000" opacity="1.000000" stroke="none" 
	d="
M415.220642,242.800354 
	C416.545868,241.993805 417.761627,241.550369 418.977386,241.106934 
	C419.231201,243.142975 419.694489,245.188583 419.602295,247.208832 
	C419.576904,247.764145 417.890991,248.243637 416.967072,248.757919 
	C416.308533,247.556702 415.552307,246.395508 415.036407,245.135864 
	C414.809387,244.581589 415.071289,243.827072 415.220642,242.800354 
z"/>
<path fill="#000000" opacity="1.000000" stroke="none" 
	d="
M381.708923,240.513977 
	C382.248230,240.933105 382.666260,241.185928 382.657013,241.421997 
	C382.562866,243.821030 382.399109,246.217346 382.254852,248.614410 
	C381.178864,248.227356 379.493042,248.137207 379.134491,247.400833 
	C377.730804,244.517685 377.347351,241.630112 381.708923,240.513977 
z"/>
</svg>