<?xml version="1.0" encoding="UTF-8"?>
<svg version="1.1" xmlns="http://www.w3.org/2000/svg" width="422" height="105">
<path d="M0 0 C4.58532053 0.42530509 7.87010376 1.79040207 11.875 4 C18.35613284 7.28027925 22.22335724 9.17742392 29.3203125 6.96484375 C31.78220567 6.06842193 34.23674396 5.15154871 36.68359375 4.21484375 C40.71380268 2.73852458 43.71234805 2.2041739 48 2 C48.97324219 1.92652344 49.94648438 1.85304687 50.94921875 1.77734375 C58.39358522 1.43375761 63.49032159 2.70834436 70.22265625 5.8046875 C74.99509353 7.85864785 79.25648331 8.83558884 84.30859375 7.296875 C87.97498065 5.73881514 91.3453795 3.80603705 94.75 1.75 C97.93511093 0.03494027 99.47010385 -0.51910237 103 0 C104 1 104 1 104.375 3.5 C103.78785284 8.98004015 101.55074839 13.73198516 97.37890625 17.44140625 C95.31155918 18.78851628 93.20787556 19.89606222 91 21 C89.93007813 21.56589844 88.86015625 22.13179687 87.7578125 22.71484375 C82.31407794 25.55452771 76.88867403 28.14281683 71.0625 30.125 C63.04839365 32.90996071 58.19380537 37.39834995 53 44 C48.45857033 43.46978232 48.45857033 43.46978232 46.40234375 41.36328125 C45.91894531 40.68652344 45.43554688 40.00976562 44.9375 39.3125 C39.51995468 32.72900471 31.78616 30.03402966 24 27.0625 C13.93995706 23.13583808 4.75821199 18.17476834 -0.375 8.375 C-1.05334178 5.79730123 -1.22114905 3.65378864 -1 1 C-0.67 0.67 -0.34 0.34 0 0 Z " fill="#FBFEFD" transform="translate(317,1)"/>
<path d="M0 0 C3.63 0 7.26 0 11 0 C14.97580874 11.92742623 17.65439749 24.10669754 20.39916992 36.36547852 C20.90537799 38.58510115 21.43719277 40.79417456 22 43 C23.93953855 37.34836448 25.72722494 31.66003451 27.4453125 25.9375 C27.66217712 25.21570557 27.87904175 24.49391113 28.10247803 23.75024414 C29.0095331 20.72755719 29.91491603 17.70438174 30.81689453 14.68017578 C31.4819055 12.45260174 32.15081964 10.22623041 32.8203125 8 C33.02447784 7.31156006 33.22864319 6.62312012 33.43899536 5.91381836 C34.88656643 1.11343357 34.88656643 1.11343357 36 0 C39.3 0 42.6 0 46 0 C50.29 14.19 54.58 28.38 59 43 C60.89251864 37.32244408 62.5980282 31.95860672 64.0078125 26.19140625 C64.17876434 25.49861069 64.34971619 24.80581512 64.52584839 24.09202576 C65.06236415 21.91635095 65.59410594 19.73955279 66.125 17.5625 C66.6635097 15.36057762 67.20310801 13.15894352 67.74557495 10.95799255 C68.23293294 8.97988823 68.71642436 7.00083245 69.19970703 5.02172852 C70 2 70 2 71 0 C74.3 0 77.6 0 81 0 C77.86300584 19.39232756 72.04835954 38.30803234 66.76855469 57.20117188 C66.1484813 59.45927901 65.56794463 61.72822146 65 64 C61.7 64 58.4 64 55 64 C54.78384033 63.32122803 54.56768066 62.64245605 54.3449707 61.94311523 C49.28868274 46.0479607 49.28868274 46.0479607 44.125 30.1875 C43.75632813 29.06730469 43.38765625 27.94710937 43.0078125 26.79296875 C41.9683264 23.74151915 41.9683264 23.74151915 40 20 C35.71 34.52 31.42 49.04 27 64 C23.7 64 20.4 64 17 64 C16.70754395 62.91581787 16.41508789 61.83163574 16.11376953 60.71459961 C15.02216743 56.66839788 13.9298845 52.62238021 12.83740234 48.57641602 C12.36586415 46.82972089 11.8945073 45.0829768 11.42333984 43.33618164 C10.74364851 40.81643797 10.0632918 38.29687473 9.3828125 35.77734375 C9.17439728 35.00414291 8.96598206 34.23094208 8.75125122 33.43431091 C7.83345395 30.03832242 6.8997391 26.64972836 5.93164062 23.26757812 C5.14274525 20.50065576 4.40436562 17.73336685 3.7109375 14.94140625 C3.49179688 14.06162109 3.27265625 13.18183594 3.046875 12.27539062 C2.82515625 11.38013672 2.6034375 10.48488281 2.375 9.5625 C2.14554687 8.64017578 1.91609375 7.71785156 1.6796875 6.76757812 C1.1187115 4.51198712 0.55920533 2.25603064 0 0 Z " fill="#F8FDFC" transform="translate(113,22)"/>
<path d="M0 0 C0.969375 0.886875 1.93875 1.77375 2.9375 2.6875 C11.93743612 10.3783545 21.19131187 13.66023017 33 13 C35.36187977 12.75204465 37.65838825 12.40723683 40 12 C40 12.66 40 13.32 40 14 C45.81242797 15.3110473 45.81242797 15.3110473 51.125 13.5625 C51.74375 13.046875 52.3625 12.53125 53 12 C56.75 11.8125 56.75 11.8125 60 12 C60 12.66 60 13.32 60 14 C73.27286979 12.71861344 82.49517028 9.50482972 92 0 C92.495 8.91 92.495 8.91 93 18 C88.42663783 19.52445406 84.56345064 20.47356868 79.875 21.25 C68.03915604 23.4863393 59.80375301 28.50385438 51.47265625 37.0234375 C49 39 49 39 46.4609375 39.54296875 C43.15840316 38.81431435 41.89904299 37.36313128 39.5625 34.9375 C29.12194305 25.11564272 17.00170213 21.72516374 3.16015625 19.5546875 C2.44730469 19.37164062 1.73445313 19.18859375 1 19 C-0.65497356 15.69005287 -0.10084335 12.00877 -0.0625 8.375 C-0.05798828 7.57320313 -0.05347656 6.77140625 -0.04882812 5.9453125 C-0.03703168 3.96350994 -0.01909605 1.98174567 0 0 Z " fill="#F9FDFD" transform="translate(322,66)"/>
<path d="M0 0 C4.18325255 2.97759898 6.49795241 6.69121732 8.7890625 11.2734375 C9.2840625 18.2034375 9.2840625 18.2034375 9.7890625 25.2734375 C-0.7709375 25.2734375 -11.3309375 25.2734375 -22.2109375 25.2734375 C-20.10536469 33.8262239 -20.10536469 33.8262239 -16.2109375 37.2734375 C-9.571056 39.71970963 -4.95900196 38.94920684 1.7890625 37.2734375 C3.78716912 36.92893636 5.78628665 36.58966527 7.7890625 36.2734375 C7.7890625 39.2434375 7.7890625 42.2134375 7.7890625 45.2734375 C-0.50618361 48.70595313 -10.5599682 50.45020334 -19.2109375 47.0859375 C-25.59655856 43.22795811 -28.99573129 40.31924996 -31.515625 33.21484375 C-33.47636799 24.92023999 -33.21878003 16.25323436 -29.61328125 8.46484375 C-26.61273767 3.77597202 -22.51947637 0.6348835 -17.7734375 -2.1640625 C-11.27607522 -3.59031276 -5.85755184 -3.29049725 0 0 Z M-20.2109375 10.2734375 C-21.2009375 13.7384375 -21.2009375 13.7384375 -22.2109375 17.2734375 C-15.2809375 17.2734375 -8.3509375 17.2734375 -1.2109375 17.2734375 C-1.51271606 10.6282284 -1.51271606 10.6282284 -4.3359375 7.8359375 C-10.38981039 4.54578919 -15.22367311 5.75010468 -20.2109375 10.2734375 Z " fill="#F7FDFC" transform="translate(293.2109375,38.7265625)"/>
<path d="M0 0 C12.21 0 24.42 0 37 0 C37 2.97 37 5.94 37 9 C28.09 9 19.18 9 10 9 C10.33 14.94 10.66 20.88 11 27 C13.85829718 27.95276573 15.8724894 28.17603382 18.8515625 28.28125 C19.78484375 28.31863281 20.718125 28.35601562 21.6796875 28.39453125 C23.65103168 28.46512315 25.62238597 28.53543345 27.59375 28.60546875 C28.52445313 28.64285156 29.45515625 28.68023437 30.4140625 28.71875 C31.69724365 28.76418945 31.69724365 28.76418945 33.00634766 28.81054688 C35 29 35 29 36 30 C36.125 33.5 36.125 33.5 36 37 C35 38 35 38 32.59155273 38.11352539 C31.54942627 38.10828857 30.5072998 38.10305176 29.43359375 38.09765625 C28.42095459 38.09515869 27.40831543 38.09266113 26.36499023 38.09008789 C25.06891846 38.08098389 23.77284668 38.07187988 22.4375 38.0625 C18.333125 38.041875 14.22875 38.02125 10 38 C10 46.58 10 55.16 10 64 C6.7 64 3.4 64 0 64 C0 42.88 0 21.76 0 0 Z " fill="#F7E340" transform="translate(1,22)"/>
<path d="M0 0 C0.33 1.65 0.66 3.3 1 5 C1.680625 4.38125 2.36125 3.7625 3.0625 3.125 C8.46113231 -0.78039359 13.42535175 -1.41157598 19.85546875 -0.48046875 C24.1789992 0.48819108 28.38281278 2.33593789 31 6 C32.84585283 11.32405512 33.27233588 15.9524566 33.1953125 21.55859375 C33.1924826 22.34774673 33.18965271 23.13689972 33.18673706 23.94996643 C33.17563057 26.44597172 33.15054455 28.94160498 33.125 31.4375 C33.11495785 33.13996874 33.10583417 34.84244316 33.09765625 36.54492188 C33.0757226 40.69675576 33.04125977 44.84831502 33 49 C29.7 49 26.4 49 23 49 C22.9906543 47.93040039 22.98130859 46.86080078 22.97167969 45.75878906 C22.93176488 41.7850603 22.86600279 37.81210456 22.79248047 33.83886719 C22.76427933 32.12021831 22.74306046 30.40143995 22.72900391 28.68261719 C22.70756167 26.20961253 22.66090844 23.73816325 22.609375 21.265625 C22.60814636 20.49881409 22.60691772 19.73200317 22.60565186 18.94195557 C22.510405 15.46199157 22.2632493 13.36625365 20.20800781 10.50683594 C16.15333918 7.73976221 11.77280041 8.72423105 7.1875 9.4375 C3.59514053 12.00347105 2.90832976 15.86244104 2 20 C1.51669862 25.01846255 1.3994247 30.02335111 1.3125 35.0625 C1.27925702 36.41865132 1.24476115 37.77477253 1.20898438 39.13085938 C1.1270363 42.42048937 1.05771038 45.70987055 1 49 C-1.97 49 -4.94 49 -8 49 C-8 32.83 -8 16.66 -8 0 C-4.71023192 -1.09658936 -3.28696233 -0.79953138 0 0 Z " fill="#F8DF2D" transform="translate(75,37)"/>
<path d="M0 0 C0.75982178 0.00128906 1.51964355 0.00257812 2.30249023 0.00390625 C7.70119014 0.0967372 11.88957603 0.83058138 16.75 3.3125 C15.76 5.9525 14.77 8.5925 13.75 11.3125 C13.13253906 11.168125 12.51507813 11.02375 11.87890625 10.875 C3.37670629 8.95003798 3.37670629 8.95003798 -5.25 9.3125 C-7.08093704 10.49758498 -7.08093704 10.49758498 -8.25 12.3125 C-8.25 13.6325 -8.25 14.9525 -8.25 16.3125 C-5.54657697 17.41202653 -2.83663058 18.46290917 -0.09375 19.4609375 C1.0096875 19.86570312 2.113125 20.27046875 3.25 20.6875 C4.3534375 21.08710937 5.456875 21.48671875 6.59375 21.8984375 C10.57193132 23.68074151 13.63058911 25.59606996 16.0390625 29.2890625 C17.32958703 32.96209387 17.28866598 36.48198635 16.75 40.3125 C14.14225337 45.52799326 11.29419631 47.99735797 5.88671875 50.00390625 C-2.18250288 52.34943868 -10.81450448 51.03024776 -18.25 47.3125 C-18.25 44.3425 -18.25 41.3725 -18.25 38.3125 C-17.46496094 38.5290625 -16.67992187 38.745625 -15.87109375 38.96875 C-9.14334778 40.75180905 -3.29120965 42.27887622 3.625 40.625 C6.01656084 39.46949823 6.01656084 39.46949823 6.5625 36.6875 C6.624375 35.90375 6.68625 35.12 6.75 34.3125 C2.5097125 31.42247165 -1.62409697 29.06134057 -6.4375 27.25 C-11.04590119 25.48733964 -14.5458596 23.5846872 -17.5625 19.5625 C-18.63456426 16.05392607 -19.02209685 12.88677594 -18.25 9.3125 C-13.68698927 1.71242045 -8.62687653 -0.05970802 0 0 Z " fill="#F6FCFC" transform="translate(237.25,36.6875)"/>
<path d="M0 0 C6.16623907 8.09318878 7.02998446 16.07270295 6 26 C3.77968018 33.86812364 -1.3878082 39.38052353 -8 44 C-11.70751771 45.81752904 -15.02254942 46.37390415 -19.125 46.6875 C-20.15882813 46.77386719 -21.19265625 46.86023438 -22.2578125 46.94921875 C-25 47 -25 47 -28 46 C-27.71125 45.443125 -27.4225 44.88625 -27.125 44.3125 C-25.92040468 42.02249515 -25.92040468 42.02249515 -25.32421875 39.4765625 C-24 37 -24 37 -21.13671875 35.84765625 C-19.42935547 35.45900391 -19.42935547 35.45900391 -17.6875 35.0625 C-11.77129396 33.45433792 -9.1354162 32.26302006 -6 27 C-4.16809302 21.50427905 -4.22583874 15.93540316 -6.375 10.5625 C-7.56023127 8.69348146 -8.77236895 6.84144657 -10 5 C-8.71186658 4.16121545 -7.41936744 3.32913217 -6.125 2.5 C-5.40570313 2.0359375 -4.68640625 1.571875 -3.9453125 1.09375 C-2 0 -2 0 0 0 Z " fill="#F8FDFD" transform="translate(408,28)"/>
<path d="M0 0 C3.59391114 1.33488128 6.75490696 2.96022723 10 5 C9.38125 5.70125 8.7625 6.4025 8.125 7.125 C4.3004218 12.29942933 3.56969447 16.57319664 4.453125 22.8203125 C5.27848869 26.10997635 6.88504429 28.38740766 9 31 C9.42796875 31.53753906 9.8559375 32.07507812 10.296875 32.62890625 C12.62453148 34.50277649 14.42157926 34.37234825 17.375 34.5625 C21.06887225 35.10557261 22.50313569 35.36329329 24.83203125 38.34765625 C26.06139152 40.86660482 27.11257724 43.34263462 28 46 C19.77538945 47.73982146 11.30854612 46.46227557 4.125 41.875 C-1.71502408 37.13444256 -5.66240227 30.35678754 -7 23 C-7.8383524 14.61647603 -5.35061282 6.56178305 0 0 Z " fill="#F8FDFD" transform="translate(329,28)"/>
<path d="M0 0 C3.3 0 6.6 0 10 0 C10 16.17 10 32.34 10 49 C6.7 49 3.4 49 0 49 C0 32.83 0 16.66 0 0 Z " fill="#FAFEFD" transform="translate(200,37)"/>
<path d="M0 0 C0 16.17 0 32.34 0 49 C-2.97 49 -5.94 49 -9 49 C-10.35879795 46.28240409 -10.12966571 44.13444775 -10.1328125 41.09375 C-10.13474609 39.88227295 -10.13667969 38.6707959 -10.13867188 37.42260742 C-10.1319043 35.48091675 -10.1319043 35.48091675 -10.125 33.5 C-10.12306641 32.19329346 -10.12113281 30.88658691 -10.11914062 29.5402832 C-10.0752851 19.66487093 -9.73817039 9.84666576 -9 0 C-5.32211882 -1.22596039 -4.21550387 -0.84310077 0 0 Z " fill="#F8D60E" transform="translate(54,37)"/>
<path d="M0 0 C6.06620164 2.33315448 11.78720788 6.68323291 15.25 12.25 C15.33285483 16.80701576 14.71917338 18.69872128 11.75 22.1875 C8.41212816 24.62454859 5.41715656 24.85465149 1.36328125 24.609375 C-2.57164089 23.94022003 -4.83050812 22.23516987 -7.5 19.375 C-9.74085299 15.56554991 -9.90341419 13.10911947 -9.125 8.75 C-7.28069053 4.05539407 -5.35374074 0.4867037 0 0 Z M2.25 7.25 C-0.11692966 10.09826598 -0.11692966 10.09826598 0.625 13.4375 C0.83125 14.365625 1.0375 15.29375 1.25 16.25 C2.57 16.25 3.89 16.25 5.25 16.25 C5.93493373 13.39221967 5.93493373 13.39221967 6.25 10.25 C5.59 9.26 4.93 8.27 4.25 7.25 C3.59 7.25 2.93 7.25 2.25 7.25 Z " fill="#F8FDFD" transform="translate(346.75,34.75)"/>
<path d="M0 0 C2.75262393 2.29385328 3.85784096 3.57352289 5 7 C5.34231315 12.30585376 5.53140599 15.73795828 2 20 C-1.7670558 23.21307701 -5.07008034 23.32545885 -9.81640625 23.30078125 C-13.04710926 22.85576491 -15.19105528 21.93903817 -17.3359375 19.44921875 C-17.67882812 18.86785156 -18.02171875 18.28648438 -18.375 17.6875 C-18.73335938 17.11386719 -19.09171875 16.54023437 -19.4609375 15.94921875 C-20.26870235 13.02838787 -19.42574628 11.62466929 -18 9 C-15.9765625 6.83203125 -15.9765625 6.83203125 -13.625 4.8125 C-12.85414063 4.13832031 -12.08328125 3.46414062 -11.2890625 2.76953125 C-7.31308938 -0.30404524 -4.93103865 -1.72586353 0 0 Z M-9 6 C-10.41577477 7.18424326 -10.41577477 7.18424326 -10.0625 10.5625 C-10.041875 11.696875 -10.02125 12.83125 -10 14 C-8.05396726 14.59070014 -8.05396726 14.59070014 -6 15 C-4.58422523 13.81575674 -4.58422523 13.81575674 -4.9375 10.4375 C-4.958125 9.303125 -4.97875 8.16875 -5 7 C-6.94603274 6.40929986 -6.94603274 6.40929986 -9 6 Z " fill="#F7FDFD" transform="translate(394,36)"/>
<path d="M0 0 C2 2 2 2 3.75 5.375 C5.86564787 9.21361868 8.22305266 10.85400719 12 13 C9.20307439 18.27112904 6.01764453 22.59398317 2 27 C-1.97830213 26.47253972 -3.60207301 24.65128216 -6.1875 21.6875 C-6.88230469 20.90761719 -7.57710938 20.12773438 -8.29296875 19.32421875 C-9.92130798 17.10714359 -10.58851472 15.68386669 -11 13 C-10.2575 12.62875 -9.515 12.2575 -8.75 11.875 C-4.41866351 8.92181603 -2.16599644 4.69299229 0 0 Z " fill="#F8FDFD" transform="translate(368,50)"/>
<path d="M0 0 C0 16.17 0 32.34 0 49 C-2.97 49 -5.94 49 -9 49 C-10.35879795 46.28240409 -10.12966571 44.13444775 -10.1328125 41.09375 C-10.13474609 39.88227295 -10.13667969 38.6707959 -10.13867188 37.42260742 C-10.1319043 35.48091675 -10.1319043 35.48091675 -10.125 33.5 C-10.12306641 32.19329346 -10.12113281 30.88658691 -10.11914062 29.5402832 C-10.0752851 19.66487093 -9.73817039 9.84666576 -9 0 C-5.32211882 -1.22596039 -4.21550387 -0.84310077 0 0 Z M-8 2 C-8 17.18 -8 32.36 -8 48 C-5.69 48 -3.38 48 -1 48 C-1 32.82 -1 17.64 -1 2 C-3.31 2 -5.62 2 -8 2 Z " fill="#FBFEA5" transform="translate(54,37)"/>
<path d="M0 0 C0.33 2.31 0.66 4.62 1 7 C0.34 7 -0.32 7 -1 7 C-1 5.35 -1 3.7 -1 2 C-2.98 2 -4.96 2 -7 2 C-7 17.18 -7 32.36 -7 48 C-4.69 48 -2.38 48 0 48 C-0.02356567 46.64636353 -0.02356567 46.64636353 -0.04760742 45.26538086 C-0.09899354 41.89015866 -0.1364741 38.51535729 -0.16479492 35.13989258 C-0.17980313 33.68409632 -0.20021633 32.22834468 -0.22631836 30.77270508 C-0.26305676 28.66997211 -0.2798056 26.56784115 -0.29296875 24.46484375 C-0.31653442 22.57173462 -0.31653442 22.57173462 -0.34057617 20.64038086 C0.05252141 16.4386045 1.16076418 13.76544819 3 10 C3.66 10.33 4.32 10.66 5 11 C4.51917969 12.17433594 4.03835937 13.34867188 3.54296875 14.55859375 C1.3099148 21.25775561 1.43324506 28.06273651 1.3125 35.0625 C1.27925702 36.41865132 1.24476115 37.77477253 1.20898438 39.13085938 C1.1270363 42.42048937 1.05771038 45.70987055 1 49 C-1.97 49 -4.94 49 -8 49 C-8 32.83 -8 16.66 -8 0 C-4.71023192 -1.09658936 -3.28696233 -0.79953138 0 0 Z " fill="#F9FDA8" transform="translate(75,37)"/>
<path d="M0 0 C2.4375 0.625 2.4375 0.625 4.3125 2.25 C5.82526998 5.44362551 5.38507993 7.27202485 4.4375 10.625 C2.4375 12.625 2.4375 12.625 -0.6875 12.75 C-1.63625 12.70875 -2.585 12.6675 -3.5625 12.625 C-4.5525 10.645 -5.5425 8.665 -6.5625 6.625 C-3.28688163 0.80167845 -3.28688163 0.80167845 0 0 Z " fill="#F4D815" transform="translate(49.5625,19.375)"/>
<path d="M0 0 C1.39935013 2.79870027 1.25265405 4.90498792 1 8 C-0.1875 9.875 -0.1875 9.875 -2 11 C-4.5625 11.3125 -4.5625 11.3125 -7 11 C-9 9 -9 9 -9.3125 5.5625 C-9 2 -9 2 -7.875 0 C-5.01598528 -1.52480785 -3.03270286 -0.8570682 0 0 Z " fill="#F3FCFC" transform="translate(209,21)"/>
<path d="M0 0 C2.4375 0.625 2.4375 0.625 4.3125 2.25 C5.82526998 5.44362551 5.38507993 7.27202485 4.4375 10.625 C2.4375 12.625 2.4375 12.625 -0.6875 12.75 C-1.63625 12.70875 -2.585 12.6675 -3.5625 12.625 C-4.5525 10.645 -5.5425 8.665 -6.5625 6.625 C-3.28688163 0.80167845 -3.28688163 0.80167845 0 0 Z M-3.5625 3.625 C-3.81255386 6.58317107 -3.81255386 6.58317107 -3.5625 9.625 C-2.9025 10.285 -2.2425 10.945 -1.5625 11.625 C1.21987655 11.21971099 1.21987655 11.21971099 3.4375 9.625 C3.60416667 6.625 3.60416667 6.625 3.4375 3.625 C2.3779123 2.34177453 2.3779123 2.34177453 -0.0625 2.5 C-2.5029123 2.34177453 -2.5029123 2.34177453 -3.5625 3.625 Z " fill="#F2FC98" transform="translate(49.5625,19.375)"/>
</svg>
